<svg xmlns="http://www.w3.org/2000/svg" version="1.0" viewBox="0 0 496 503" width="32" height="32"><path d="M226 24.5c-22.5 3.3-50.2 11.6-67 20-34.3 17.2-64.1 42.6-87.7 74.5-16.9 23-33.1 63-37.3 92.2-6.3 44-4.7 71.3 6.5 107.9C47 340.6 58.3 364 62.1 364c1.5 0 16.9-15.6 17.7-17.9.2-.5-1.7-4.9-4.1-9.8-4.9-9.8-11.9-29.6-14.7-41.8-4.1-17.5-5.6-51.6-3.1-70.5 7.7-57.9 39.5-109.4 88.1-142 19.2-12.9 45-23.8 67.9-28.7 11.8-2.5 14.2-2.7 37.6-2.6 29 0 37.4 1.1 56 7.4 31.2 10.6 58 27.3 80.1 50 16.2 16.8 26.3 31.5 37.7 55.1 6 12.5 7 13.9 10.6 15.8 5 2.5 7.7 2.5 11.8 0 10.3-6.3 8.8-17.9-5.7-42.5-6.7-11.3-16.4-25.9-20.3-30.5-14.5-17-26.8-28.6-43.7-41.1C348.4 43 310.3 28.2 272.5 24c-12-1.3-36-1.1-46.5.5"/><path d="M238.6 89.1c-24.8 2.6-54 13.2-73.5 26.8-17.9 12.3-29.4 23.7-39.6 39.1-17.1 25.8-25.6 49.1-28.6 77.5-3.1 31 3.4 67.9 16.4 92.9 4.2 8.1 12.1 19.6 13.5 19.6.4 0 4.7-4 9.6-8.9l8.8-8.9-6.6-12.8c-15.9-31.1-20.2-62.1-13-94.3 12-53.5 45-87.3 100.4-102.7 8.2-2.3 41.2-2.7 50-.6 10.4 2.5 24.5 7.7 32.9 11.9 4.6 2.4 9 4.3 9.8 4.3s1.2.4.9.9c-.3.4 1.2 2.2 3.4 4 4 3.2 5.6 3.9 4.4 1.9-.4-.7-.3-.8.5-.4.6.4.9 1.1.6 1.6-.6 1 9.5 10.1 10.5 9.5.7-.5 6.1 4.8 6.3 6.2.1.4.5.7.9.6.3-.1 1.2.5 2 1.5 1.2 1.5 1.1 1.6-.4.3-3-2.3-2-.1 2.4 5.6 2.3 3 6.6 10.2 9.7 16.1 6.5 12.4 9.6 15.2 17 15.2 5.6 0 8.5-1.8 11.2-7.2 3.3-6.5 1.3-14.1-7.7-27.8-6.9-10.5-11.5-16.4-19-24.2-3.5-3.7-6.4-7.2-6.4-7.9 0-.6-.8-.9-2-.6-1.1.3-1.8.2-1.5-.3.7-1.2-13.4-13.4-19.6-17-12-6.8-20.9-10.9-31.4-14.3-15.4-5-18-5.6-31.8-7.2-13.3-1.6-18.1-1.7-30.1-.4"/><path d="M340.6 153.5c.9 1.4 2.1 2.5 2.7 2.5s0-1.1-1.3-2.5-2.5-2.5-2.7-2.5.4 1.1 1.3 2.5M365.9 319.3c-1.8 1.2-6.6 6.5-10.6 11.7-22.8 29.7-53.8 46.7-92.6 51-26.4 2.8-61.9-6.1-81.8-20.6-2.6-1.9-5.3-3.4-6.1-3.4-1.7 0-17.8 16.1-17.8 17.8 0 1.6 16.2 12.3 27.1 17.7 16.1 8.1 32.6 12.3 57.7 14.5 17.4 1.6 45.5-2 63.5-8.1 8.4-2.8 26.3-11.9 35.4-18 4.6-3 13.4-10.8 21.4-18.8 24.3-24.4 29.3-35.5 19.8-43.6-4.1-3.4-11.2-3.5-16-.2"/><path d="M432.6 329.1c-2.1 1.7-5.6 7.1-8.4 12.8-8.5 16.6-16 27.9-27.8 41.4-31.4 36-76.6 59.2-124.4 63.6-38.3 3.6-72.7-2.2-102.4-17.1-19.7-9.9-36-20.8-48.5-32.4-5.4-4.9-6.3-5.5-7.9-4.3-3.6 2.7-16.2 15.4-16.2 16.3 0 1 4.4 5.3 15.5 15 17.1 15.1 49 32.5 73 39.9 9.4 3 24 6.5 32 7.8 12.6 2.1 56.2 1.8 70-.4 27.8-4.6 52.2-13.5 77.7-28.4 11.5-6.8 18.2-11.7 31.3-23.4 16.7-14.7 30.2-30.7 42.6-50.4 16-25.3 17.8-32.2 10.5-40-3-3.1-3.9-3.5-8.4-3.5-4.3 0-5.7.5-8.6 3.1"/></svg>