<?xml version="1.0" standalone="no"?>
<!DOCTYPE svg PUBLIC "-//W3C//DTD SVG 20010904//EN"
 "http://www.w3.org/TR/2001/REC-SVG-20010904/DTD/svg10.dtd">
<svg version="1.0" xmlns="http://www.w3.org/2000/svg"
 width="496.000000pt" height="503.000000pt" viewBox="0 0 496.000000 503.000000"
 preserveAspectRatio="xMidYMid meet">

<g transform="translate(0.000000,503.000000) scale(0.100000,-0.100000)"
fill="#000000" stroke="none">
<path d="M2260 4785 c-225 -33 -502 -116 -670 -200 -343 -172 -641 -426 -877
-745 -169 -230 -331 -630 -373 -922 -63 -440 -47 -713 65 -1079 65 -215 178
-449 216 -449 15 0 169 156 177 179 2 5 -17 49 -41 98 -49 98 -119 296 -147
418 -41 175 -56 516 -31 705 77 579 395 1094 881 1420 192 129 450 238 679
287 118 25 142 27 376 26 290 0 374 -11 560 -74 312 -106 580 -273 801 -500
162 -168 263 -315 377 -551 60 -125 70 -139 106 -158 50 -25 77 -25 118 0 103
63 88 179 -57 425 -67 113 -164 259 -203 305 -145 170 -268 286 -437 411 -296
219 -677 367 -1055 409 -120 13 -360 11 -465 -5z"/>
<path d="M2386 4139 c-248 -26 -540 -132 -735 -268 -179 -123 -294 -237 -396
-391 -171 -258 -256 -491 -286 -775 -31 -310 34 -679 164 -929 42 -81 121
-196 135 -196 4 0 47 40 96 89 l88 89 -66 128 c-159 311 -202 621 -130 943
120 535 450 873 1004 1027 82 23 412 27 500 6 104 -25 245 -77 329 -119 46
-24 90 -43 98 -43 8 0 12 -4 9 -9 -3 -4 12 -22 34 -40 40 -32 56 -39 44 -19
-4 7 -3 8 5 4 6 -4 9 -11 6 -16 -6 -10 95 -101 105 -95 7 5 61 -48 63 -62 1
-4 5 -7 9 -6 3 1 12 -5 20 -15 12 -15 11 -16 -4 -3 -30 23 -20 1 24 -56 23
-30 66 -102 97 -161 65 -124 96 -152 170 -152 56 0 85 18 112 72 33 65 13 141
-77 278 -69 105 -115 164 -190 242 -35 37 -64 72 -64 79 0 6 -8 9 -20 6 -11
-3 -18 -2 -15 3 7 12 -134 134 -196 170 -120 68 -209 109 -314 143 -154 50
-180 56 -318 72 -133 16 -181 17 -301 4z"/>
<path d="M3406 3495 c9 -14 21 -25 27 -25 6 0 0 11 -13 25 -13 14 -25 25 -27
25 -2 0 4 -11 13 -25z"/>
<path d="M3659 1837 c-18 -12 -66 -65 -106 -117 -228 -297 -538 -467 -926
-510 -264 -28 -619 61 -818 206 -26 19 -53 34 -61 34 -17 0 -178 -161 -178
-178 0 -16 162 -123 271 -177 161 -81 326 -123 577 -145 174 -16 455 20 635
81 84 28 263 119 354 180 46 30 134 108 214 188 243 244 293 355 198 436 -41
34 -112 35 -160 2z"/>
<path d="M4326 1739 c-21 -17 -56 -71 -84 -128 -85 -166 -160 -279 -278 -414
-314 -360 -766 -592 -1244 -636 -383 -36 -727 22 -1024 171 -197 99 -360 208
-485 324 -54 49 -63 55 -79 43 -36 -27 -162 -154 -162 -163 0 -10 44 -53 155
-150 171 -151 490 -325 730 -399 94 -30 240 -65 320 -78 126 -21 562 -18 700
4 278 46 522 135 777 284 115 68 182 117 313 234 167 147 302 307 426 504 160
253 178 322 105 400 -30 31 -39 35 -84 35 -43 0 -57 -5 -86 -31z"/>
</g>
</svg>
